<?xml version="1.0" encoding="UTF-8"?>
<svg width="140px" height="190px" viewBox="0 0 140 190" version="1.1" xmlns="http://www.w3.org/2000/svg" xmlns:xlink="http://www.w3.org/1999/xlink">
    <!-- Generator: Sketch 48.2 (47327) - http://www.bohemiancoding.com/sketch -->
    <title>Comma</title>
    <desc>Created with Sketch.</desc>
    <defs></defs>
    <g id="Page-1" stroke="none" stroke-width="1" fill="none" fill-rule="evenodd">
        <g id="Comma">
            <g>
                <rect id="bg" fill="#ECAE46" x="0" y="-9.09494702e-13" width="140" height="140"></rect>
                <g id="icon" transform="translate(20.679952, 13.500000)" fill="#030405">
                    <path d="M78.7862,67.8073 C79.3342,67.7033 80.1102,67.2463 81.1132,66.4363 C83.3072,64.2033 85.0842,62.2693 86.4432,60.6353 C87.8022,59.0023 89.7752,56.4273 92.3642,52.9113 C94.0512,50.4413 95.2062,48.5803 95.8282,47.3313 C96.4512,46.0823 96.7032,44.9373 96.5852,43.8953 C95.6042,41.5923 93.0242,40.7033 88.8442,41.2293 C85.9472,41.5943 80.2352,44.1733 75.5372,47.7433 C73.9082,48.9803 71.6092,50.7983 68.9942,53.8503 C68.5742,54.3413 67.9962,55.1243 67.2882,56.1543 C67.2172,55.3623 67.0532,54.6663 66.8362,54.0943 C68.1472,51.9623 69.1662,50.4543 69.8872,49.5803 C70.5512,48.7753 71.1952,48.0273 71.9312,47.1963 C72.2312,46.8573 73.3442,45.6153 73.5982,45.3283 C74.3522,44.4733 75.2652,43.4023 76.0412,41.4033 C76.1012,41.0593 75.9962,40.8353 75.7272,40.7303 C75.4572,40.6253 75.2652,40.7033 75.1512,40.9653 C74.3962,42.9093 73.8182,43.9973 73.1152,44.7933 C72.8632,45.0783 71.8232,46.4933 71.5212,46.8323 C70.7812,47.6683 70.1332,48.4213 69.4642,49.2323 C68.7612,50.0853 67.7932,51.5093 66.5642,53.4943 C66.2782,52.9633 65.9432,52.6033 65.6052,52.4873 C65.4272,52.4253 65.1972,52.4193 64.9412,52.4523 C64.6052,49.5313 64.2692,47.4173 63.9312,46.1113 C63.6272,44.9383 63.3172,43.8373 62.9522,42.6053 C62.8032,42.1033 62.4042,40.1203 62.2802,39.7003 C61.9342,38.5263 61.8602,37.1093 62.0182,34.7123 C62.0262,34.3843 61.8642,34.2093 61.5312,34.1873 C61.1992,34.1653 60.9802,34.3483 60.8762,34.7363 C60.7142,37.2013 61.1442,38.7643 61.5162,40.0223 C61.6412,40.4463 62.1992,42.2853 62.3472,42.7853 C62.7112,44.0103 63.0182,45.1043 63.3202,46.2683 C63.6512,47.5493 63.9862,49.6563 64.3212,52.5823 L64.3232,52.5983 C63.4862,52.8863 62.4652,53.5403 61.5302,54.5663 C61.4502,51.8173 61.2932,49.8533 61.0582,48.6753 C60.0752,43.7283 58.4402,40.1223 57.2382,37.6113 C53.7682,30.3683 47.9872,23.0763 44.2172,20.1903 C42.6932,19.0243 41.2522,18.0723 39.8862,17.3193 C44.4052,15.4433 49.3972,14.4943 54.8752,14.4943 C59.7732,14.4943 64.5212,15.5433 69.1192,17.6423 C73.7172,19.7413 77.5152,22.7403 80.5142,26.6383 L92.5092,17.4923 C88.2102,11.8953 82.6882,7.7463 75.9412,5.0483 C69.1942,2.3493 62.3222,0.9993 55.3252,0.9993 C47.1292,0.9993 39.6322,2.3993 32.8352,5.1983 C26.0382,7.9963 20.2162,11.9203 15.3682,16.9673 C10.5202,22.0153 6.7472,28.0133 4.0482,34.9593 C1.3492,41.9063 0.0002,49.4783 0.0002,57.6743 C0.0002,64.3713 1.2492,70.9943 3.7482,77.5403 C6.2472,84.0873 9.8702,89.9593 14.6182,95.1583 C19.3662,100.3553 25.1142,104.5533 31.8612,107.7523 C38.6072,110.9513 46.1792,112.5493 54.5762,112.5493 C60.6732,112.5493 66.0452,111.7753 70.6932,110.2263 C75.3412,108.6763 79.3142,106.8773 82.6132,104.8283 C85.9112,102.7793 88.5602,100.7303 90.5592,98.6813 C92.5582,96.6323 93.9582,95.0573 94.7582,93.9583 L82.6132,84.8123 C79.4142,89.3103 75.5162,92.8093 70.9182,95.3073 C66.3202,97.8063 60.9732,99.0563 54.8752,99.0563 C48.6782,99.0563 43.1312,97.9563 38.2332,95.7573 C33.3352,93.5583 29.1872,90.5603 25.7882,86.7613 C22.3902,82.9633 19.7912,78.5653 17.9922,73.5673 C16.1932,68.5703 15.2932,63.2723 15.2932,57.6743 C15.2932,51.6773 16.2432,46.0553 18.1412,40.8073 C20.0412,35.5593 22.7152,30.9863 26.1632,27.0883 C26.9882,26.1553 27.8562,25.2733 28.7612,24.4353 C28.7822,25.2583 28.8162,26.1483 28.8672,27.1133 C29.4032,32.4373 29.9062,36.4053 30.3752,39.0163 C30.8452,41.6293 31.6382,44.8703 32.7552,48.7403 C33.4542,50.3283 34.1442,51.4113 34.8262,51.9863 C35.5082,52.5623 36.9672,53.2963 39.2042,54.1893 C37.0882,54.8723 35.4562,56.0603 34.3072,57.7533 C33.1592,59.4463 32.2792,61.3353 31.6662,63.4223 C31.0182,66.6383 31.1112,69.5203 31.9442,72.0703 C32.7772,74.6193 34.7922,77.2093 37.9902,79.8383 C40.3362,81.2843 42.8062,81.8413 45.3982,81.5093 C47.9902,81.1783 50.2682,79.5533 52.2312,76.6363 C53.8002,74.3113 54.9442,72.4013 55.6632,70.9073 C56.3822,69.4123 57.3702,66.7753 58.6282,62.9953 L59.1112,61.5913 C59.1182,63.6653 59.2422,65.9673 58.5192,68.0653 C55.4562,76.9603 52.4922,84.0073 54.5132,84.7033 C56.5342,85.3993 58.2852,77.9353 61.3482,69.0383 C61.8312,67.6373 62.6912,66.4363 63.5902,65.3183 C62.5152,68.3813 61.8032,70.5863 61.4602,71.9143 C61.1072,73.2863 60.7522,75.1403 60.3952,77.4743 C59.9452,80.4013 60.2022,82.5563 61.1682,83.9383 C62.1342,85.3213 63.4402,86.0223 65.0882,86.0413 C67.6252,85.6053 69.6372,84.6723 71.1242,83.2443 C72.6122,81.8153 73.9292,79.8253 75.0752,77.2703 C75.7372,75.5283 76.1962,73.8053 76.4532,72.1033 C76.7112,70.4013 76.5362,68.8393 75.9312,67.4203 C77.2862,67.7833 78.2382,67.9113 78.7862,67.8073" id="Fill-1"></path>
                </g>
            </g>
            <path d="M40.5621591,167.473145 C40.346826,169.315439 39.6669419,170.737015 38.5224863,171.737915 C37.3780307,172.738815 35.856765,173.239258 33.9586435,173.239258 C31.901016,173.239258 30.2521474,172.501554 29.0119882,171.026123 C27.771829,169.550692 27.1517587,167.576835 27.1517587,165.104492 L27.1517587,163.429688 C27.1517587,161.810702 27.440859,160.387132 28.0190683,159.158936 C28.5972776,157.930739 29.4167274,156.987674 30.4774423,156.329712 C31.5381573,155.67175 32.7663351,155.342773 34.1620126,155.342773 C36.0122823,155.342773 37.4956659,155.859166 38.612208,156.891968 C39.72875,157.924769 40.3787272,159.35432 40.5621591,161.180664 L38.2533212,161.180664 C38.0539387,159.792962 37.6212852,158.788089 36.9553476,158.166016 C36.28941,157.543942 35.3583077,157.23291 34.1620126,157.23291 C32.6945574,157.23291 31.5441376,157.775222 30.7107187,158.859863 C29.8772998,159.944504 29.4605966,161.487702 29.4605966,163.489502 L29.4605966,165.17627 C29.4605966,167.066416 29.8553681,168.569737 30.6449228,169.686279 C31.4344775,170.802821 32.5390401,171.361084 33.9586435,171.361084 C35.2346916,171.361084 36.213645,171.071984 36.8955332,170.493774 C37.5774213,169.915565 38.0300128,168.908699 38.2533212,167.473145 L40.5621591,167.473145 Z M56.4501373,164.853271 C56.4501373,166.559986 56.1630308,168.049351 55.5888092,169.321411 C55.0145875,170.593472 54.2011191,171.56445 53.1483795,172.234375 C52.0956398,172.9043 50.867462,173.239258 49.4638092,173.239258 C48.0920575,173.239258 46.8758424,172.902306 45.8151275,172.228394 C44.7544126,171.554481 43.9309752,170.593471 43.3447906,169.345337 C42.758606,168.097202 42.457543,166.651701 42.4415924,165.008789 L42.4415924,163.752686 C42.4415924,162.077872 42.7326864,160.598476 43.3148834,159.314453 C43.8970803,158.03043 44.7205177,157.047489 45.7852203,156.365601 C46.8499229,155.683712 48.0681317,155.342773 49.4398834,155.342773 C50.8355609,155.342773 52.0657325,155.679725 53.1304351,156.353638 C54.1951377,157.027551 55.0145875,158.00451 55.5888092,159.284546 C56.1630308,160.564582 56.4501373,162.053947 56.4501373,163.752686 L56.4501373,164.853271 Z M54.1652252,163.72876 C54.1652252,161.663157 53.7505158,160.07809 52.9210845,158.973511 C52.0916533,157.868932 50.9312645,157.31665 49.4398834,157.31665 C47.9883787,157.31665 46.8459341,157.868932 46.0125152,158.973511 C45.1790963,160.07809 44.7504304,161.611318 44.7265045,163.573242 L44.7265045,164.853271 C44.7265045,166.855072 45.1471952,168.428176 45.9885894,169.572632 C46.8299836,170.717087 47.9883786,171.289307 49.4638092,171.289307 C50.947215,171.289307 52.095641,170.748988 52.9091217,169.668335 C53.7226023,168.587682 54.1412993,167.038503 54.1652252,165.020752 L54.1652252,163.72876 Z M62.21751,155.582031 L67.9118459,169.793945 L73.6061818,155.582031 L76.5849416,155.582031 L76.5849416,173 L74.2880666,173 L74.2880666,166.217041 L74.5033986,158.895752 L68.7851369,173 L67.026592,173 L61.3202932,158.931641 L61.5475881,166.217041 L61.5475881,173 L59.2507131,173 L59.2507131,155.582031 L62.21751,155.582031 Z M82.9624217,155.582031 L88.6567576,169.793945 L94.3510936,155.582031 L97.3298533,155.582031 L97.3298533,173 L95.0329783,173 L95.0329783,166.217041 L95.2483104,158.895752 L89.5300486,173 L87.7715037,173 L82.0652049,158.931641 L82.2924998,166.217041 L82.2924998,173 L79.9956248,173 L79.9956248,155.582031 L82.9624217,155.582031 Z M110.574033,168.454102 L103.276669,168.454102 L101.637753,173 L99.269101,173 L105.920468,155.582031 L107.930234,155.582031 L114.593564,173 L112.236874,173 L110.574033,168.454102 Z M103.970517,166.563965 L109.892148,166.563965 L106.925351,158.417236 L103.970517,166.563965 Z" id="COMMA-Copy" fill="#000000"></path>
        </g>
    </g>
</svg>