<?xml version="1.0" encoding="UTF-8"?>
<svg width="140px" height="190px" viewBox="0 0 140 190" version="1.1" xmlns="http://www.w3.org/2000/svg" xmlns:xlink="http://www.w3.org/1999/xlink">
    <!-- Generator: Sketch 48.2 (47327) - http://www.bohemiancoding.com/sketch -->
    <title>Consulting</title>
    <desc>Created with Sketch.</desc>
    <defs></defs>
    <g id="Page-1" stroke="none" stroke-width="1" fill="none" fill-rule="evenodd">
        <g id="Consulting">
            <g>
                <rect id="bg" fill="#7FBCDE" x="0" y="0" width="140" height="140"></rect>
                <g id="icon" transform="translate(20.669209, 13.500000)" fill="#030405">
                    <path d="M82.6129,84.8122 C79.4149,89.3102 75.5159,92.8092 70.9189,95.3072 C67.5749,97.1252 63.8309,98.2722 59.6949,98.7682 C59.9229,98.2662 60.1989,97.4432 60.3769,97.1332 C62.2639,93.8372 62.1429,90.8242 61.9599,89.3362 C61.1339,82.6392 61.6459,78.5892 61.6639,77.0562 C61.6839,75.2002 63.0969,71.7022 65.9019,66.5622 L69.0109,60.6392 L74.2079,54.8472 C76.2169,52.9882 77.3449,51.5162 77.5959,50.4302 C77.8469,49.3452 77.5019,47.4182 76.5619,44.6502 L74.1019,45.2412 L72.1119,43.6232 L72.0639,45.5692 C71.5239,46.1412 70.9659,46.6612 70.3879,47.1312 C69.5229,47.8362 68.1779,50.3152 67.4189,49.3542 C66.6579,48.3932 70.7879,44.6812 71.4599,40.6442 C72.1309,36.6072 70.7429,34.0272 70.2909,33.1692 C69.8389,32.3112 68.9149,31.7652 67.8069,32.5962 C66.6989,33.4272 58.2849,40.0342 50.8639,47.4112 C49.8919,47.4112 47.1459,46.9562 44.4999,48.1042 C42.7339,48.8692 39.6529,51.1172 35.2549,54.8472 C32.8899,54.9952 30.5749,55.3852 28.3059,56.0182 C24.9039,56.9682 23.2439,57.5812 22.1299,58.1762 C21.0149,58.7722 21.7999,59.8252 22.3879,60.6132 C22.7809,61.1382 24.7539,63.0842 28.3059,66.4512 L26.1869,70.0702 L22.8529,77.2022 L21.1199,80.3092 C19.8969,78.1972 18.8499,75.9532 17.9919,73.5672 C16.1929,68.5702 15.2939,63.2722 15.2939,57.6742 C15.2939,51.6772 16.2429,46.0552 18.1419,40.8072 C20.0409,35.5592 22.7149,30.9862 26.1639,27.0882 C29.6119,23.1902 33.7589,20.1162 38.6079,17.8672 C43.4559,15.6182 48.8789,14.4942 54.8759,14.4942 C59.7729,14.4942 64.5209,15.5432 69.1189,17.6422 C73.7169,19.7412 77.5149,22.7402 80.5139,26.6382 L92.5089,17.4922 C88.2109,11.8952 82.6879,7.7472 75.9409,5.0482 C69.1939,2.3492 62.3219,0.9992 55.3249,0.9992 C47.1289,0.9992 39.6329,2.3992 32.8359,5.1982 C26.0389,7.9972 20.2169,11.9202 15.3679,16.9672 C10.5199,22.0152 6.7469,28.0132 4.0489,34.9592 C1.3489,41.9062 -0.0001,49.4782 -0.0001,57.6742 C-0.0001,64.3722 1.2499,70.9942 3.7489,77.5412 C6.2479,84.0872 9.8709,89.9592 14.6189,95.1582 C19.3669,100.3552 25.1139,104.5532 31.8609,107.7522 C38.6079,110.9512 46.1789,112.5492 54.5759,112.5492 C60.6729,112.5492 66.0459,111.7752 70.6929,110.2262 C75.3419,108.6762 79.3139,106.8772 82.6129,104.8292 C85.9119,102.7792 88.5599,100.7302 90.5589,98.6812 C92.5579,96.6322 93.9579,95.0572 94.7579,93.9582 L82.6129,84.8122 Z" id="Fill-1"></path>
                </g>
            </g>
            <path d="M15.0541279,167.473145 C14.8387948,169.315439 14.1589106,170.737015 13.014455,171.737915 C11.8699994,172.738815 10.3487337,173.239258 8.45061225,173.239258 C6.39298477,173.239258 4.74411617,172.501554 3.50395697,171.026123 C2.26379778,169.550692 1.64372748,167.576835 1.64372748,165.104492 L1.64372748,163.429688 C1.64372748,161.810702 1.93282778,160.387132 2.51103705,159.158936 C3.08924632,157.930739 3.90869614,156.987674 4.96941108,156.329712 C6.03012601,155.67175 7.25830384,155.342773 8.65398139,155.342773 C10.5042511,155.342773 11.9876347,155.859166 13.1041767,156.891968 C14.2207187,157.924769 14.870696,159.35432 15.0541279,161.180664 L12.74529,161.180664 C12.5459075,159.792962 12.1132539,158.788089 11.4473163,158.166016 C10.7813788,157.543942 9.85027643,157.23291 8.65398139,157.23291 C7.18652613,157.23291 6.03610632,157.775222 5.20268744,158.859863 C4.36926856,159.944504 3.95256537,161.487702 3.95256537,163.489502 L3.95256537,165.17627 C3.95256537,167.066416 4.34733681,168.569737 5.13689154,169.686279 C5.92644627,170.802821 7.03100879,171.361084 8.45061225,171.361084 C9.72666029,171.361084 10.7056137,171.071984 11.3875019,170.493774 C12.0693901,169.915565 12.5219816,168.908699 12.74529,167.473145 L15.0541279,167.473145 Z M30.942106,164.853271 C30.942106,166.559986 30.6549995,168.049351 30.0807779,169.321411 C29.5065563,170.593472 28.6930878,171.56445 27.6403482,172.234375 C26.5876086,172.9043 25.3594307,173.239258 23.9557779,173.239258 C22.5840262,173.239258 21.3678112,172.902306 20.3070962,172.228394 C19.2463813,171.554481 18.4229439,170.593471 17.8367593,169.345337 C17.2505748,168.097202 16.9495117,166.651701 16.9335611,165.008789 L16.9335611,163.752686 C16.9335611,162.077872 17.2246552,160.598476 17.8068521,159.314453 C18.389049,158.03043 19.2124864,157.047489 20.277189,156.365601 C21.3418916,155.683712 22.5601005,155.342773 23.9318521,155.342773 C25.3275297,155.342773 26.5577013,155.679725 27.6224039,156.353638 C28.6871064,157.027551 29.5065563,158.00451 30.0807779,159.284546 C30.6549995,160.564582 30.942106,162.053947 30.942106,163.752686 L30.942106,164.853271 Z M28.6571939,163.72876 C28.6571939,161.663157 28.2424845,160.07809 27.4130533,158.973511 C26.583622,157.868932 25.4232333,157.31665 23.9318521,157.31665 C22.4803474,157.31665 21.3379028,157.868932 20.5044839,158.973511 C19.6710651,160.07809 19.2423991,161.611318 19.2184732,163.573242 L19.2184732,164.853271 C19.2184732,166.855072 19.639164,168.428176 20.4805582,169.572632 C21.3219523,170.717087 22.4803473,171.289307 23.9557779,171.289307 C25.4391837,171.289307 26.5876098,170.748988 27.4010904,169.668335 C28.214571,168.587682 28.633268,167.038503 28.6571939,165.020752 L28.6571939,163.72876 Z M47.1291564,173 L44.8203185,173 L36.0515197,159.577637 L36.0515197,173 L33.7426818,173 L33.7426818,155.582031 L36.0515197,155.582031 L44.8442443,169.064209 L44.8442443,155.582031 L47.1291564,155.582031 L47.1291564,173 Z M55.6958455,165.236084 C53.7259463,164.669838 52.2924076,163.974003 51.3951863,163.14856 C50.497965,162.323116 50.0493611,161.304287 50.0493611,160.092041 C50.0493611,158.720289 50.5976548,157.58582 51.6942586,156.688599 C52.7908624,155.791377 54.2164259,155.342773 55.970992,155.342773 C57.167287,155.342773 58.2339674,155.574054 59.1710652,156.036621 C60.108163,156.499189 60.8339044,157.137203 61.3483113,157.950684 C61.8627182,158.764164 62.1199178,159.653397 62.1199178,160.618408 L59.8110799,160.618408 C59.8110799,159.565669 59.4761223,158.738244 58.806197,158.136108 C58.1362718,157.533973 57.1912129,157.23291 55.970992,157.23291 C54.8384993,157.23291 53.9552481,157.482135 53.3212117,157.980591 C52.6871753,158.479047 52.3701619,159.170894 52.3701619,160.056152 C52.3701619,160.765954 52.671225,161.366086 53.2733601,161.856567 C53.8754953,162.347048 54.900306,162.795652 56.347823,163.202393 C57.79534,163.609133 58.9278157,164.057737 59.745284,164.548218 C60.5627522,165.038699 61.168866,165.610918 61.5636433,166.264893 C61.9584207,166.918867 62.1558064,167.688472 62.1558064,168.57373 C62.1558064,169.985359 61.605519,171.11584 60.5049275,171.96521 C59.4043361,172.814579 57.9329152,173.239258 56.0906209,173.239258 C54.8943258,173.239258 53.7778005,173.009971 52.7410115,172.551392 C51.7042225,172.092812 50.9047106,171.464766 50.3424519,170.667236 C49.7801933,169.869706 49.4990681,168.964523 49.4990681,167.95166 L51.807906,167.95166 C51.807906,169.0044 52.1966961,169.835812 52.9742879,170.445923 C53.7518796,171.056033 54.7906469,171.361084 56.0906209,171.361084 C57.3028665,171.361084 58.2319751,171.113853 58.8779744,170.619385 C59.5239737,170.124916 59.8469685,169.451013 59.8469685,168.597656 C59.8469685,167.744299 59.5478993,167.084353 58.9497517,166.617798 C58.3516042,166.151243 57.2669796,165.690676 55.6958455,165.236084 Z M76.7159037,155.582031 L76.7159037,167.425293 C76.7079284,169.068205 76.1915355,170.412023 75.1667094,171.456787 C74.1418833,172.501551 72.752208,173.087727 70.997642,173.215332 L70.3875346,173.239258 C68.4814378,173.239258 66.9621659,172.724859 65.8296732,171.696045 C64.6971806,170.667231 64.1229676,169.251637 64.107017,167.449219 L64.107017,155.582031 L66.3799662,155.582031 L66.3799662,167.377441 C66.3799662,168.637539 66.7268866,169.616492 67.4207377,170.314331 C68.1145888,171.01217 69.1035112,171.361084 70.3875346,171.361084 C71.6875085,171.361084 72.6824123,171.014164 73.3722758,170.320312 C74.0621392,169.626461 74.4070658,168.649502 74.4070658,167.389404 L74.4070658,155.582031 L76.7159037,155.582031 Z M82.0047607,171.121826 L90.2591553,171.121826 L90.2591553,173 L79.6959229,173 L79.6959229,155.582031 L82.0047607,155.582031 L82.0047607,171.121826 Z M100.979165,157.472168 L95.3805318,157.472168 L95.3805318,173 L93.0956197,173 L93.0956197,157.472168 L87.5089498,157.472168 L87.5089498,155.582031 L100.979165,155.582031 L100.979165,157.472168 Z M105.382768,173 L103.085893,173 L103.085893,155.582031 L105.382768,155.582031 L105.382768,173 Z M122.32348,173 L120.014642,173 L111.245844,159.577637 L111.245844,173 L108.937006,173 L108.937006,155.582031 L111.245844,155.582031 L120.038568,169.064209 L120.038568,155.582031 L122.32348,155.582031 L122.32348,173 Z M138.618197,170.715088 C138.028025,171.56047 137.204587,172.192503 136.14786,172.611206 C135.091133,173.029909 133.860961,173.239258 132.457308,173.239258 C131.037705,173.239258 129.777626,172.906294 128.677035,172.240356 C127.576443,171.574419 126.725093,170.627366 126.122957,169.39917 C125.520822,168.170974 125.211784,166.747404 125.195833,165.128418 L125.195833,163.609131 C125.195833,160.985257 125.807929,158.951586 127.032137,157.508057 C128.256346,156.064527 129.976991,155.342773 132.194124,155.342773 C134.012493,155.342773 135.475939,155.807328 136.584505,156.73645 C137.693072,157.665573 138.370962,158.983471 138.618197,160.690186 L136.321322,160.690186 C135.890656,158.385324 134.518924,157.23291 132.206087,157.23291 C130.666854,157.23291 129.500484,157.773229 128.706942,158.853882 C127.913399,159.934535 127.512647,161.499664 127.504671,163.549316 L127.504671,164.9729 C127.504671,166.926849 127.951281,168.480015 128.844515,169.632446 C129.737749,170.784877 130.945989,171.361084 132.469271,171.361084 C133.330603,171.361084 134.084258,171.265382 134.730257,171.073975 C135.376257,170.882567 135.910594,170.559573 136.333285,170.10498 L136.333285,166.193115 L132.30179,166.193115 L132.30179,164.326904 L138.618197,164.326904 L138.618197,170.715088 Z" id="CONSULTING-Copy" fill="#000000"></path>
        </g>
    </g>
</svg>