<?xml version="1.0" encoding="UTF-8"?>
<svg width="140px" height="190px" viewBox="0 0 140 190" version="1.1" xmlns="http://www.w3.org/2000/svg" xmlns:xlink="http://www.w3.org/1999/xlink">
    <!-- Generator: Sketch 48.2 (47327) - http://www.bohemiancoding.com/sketch -->
    <title>Courses</title>
    <desc>Created with Sketch.</desc>
    <defs></defs>
    <g id="Page-1" stroke="none" stroke-width="1" fill="none" fill-rule="evenodd">
        <g id="Courses">
            <g>
                <rect id="Rectangle-32-Copy-6" fill="#E799BA" x="9.09494702e-13" y="0" width="140" height="140"></rect>
                <path d="M51.4517282,104.85431 C52.7037282,104.62531 54.8587282,104.55531 58.0917282,106.10931 C61.8897282,107.93431 65.1537282,107.37831 65.7967282,106.73431 C66.1477282,106.38131 65.2487282,108.66731 65.2647282,110.66031 C65.2657282,110.90031 65.4577282,111.20131 65.7997282,111.54831 C63.3927282,111.00631 61.1037282,110.26431 58.9487282,109.29631 C56.2127282,108.06831 53.7197282,106.58131 51.4517282,104.85431 Z M103.328728,98.35131 C100.130728,102.84931 96.2317282,106.34831 91.6347282,108.84631 C89.5747282,109.96531 87.3567282,110.82031 84.9977282,111.43831 C84.7287282,111.16931 84.3187282,110.80731 83.7517282,110.33831 C84.6547282,110.85031 85.1827282,111.03831 85.3367282,110.89931 C85.5647282,110.69131 85.2397282,110.01031 84.6237282,109.54831 C84.0067282,109.08531 83.3507282,108.37131 82.0147282,108.04531 C80.6807282,107.72131 78.9897282,107.39531 76.7807282,107.66231 C76.0407282,107.75031 75.0677282,107.97931 73.8937282,108.04031 C73.5727282,108.05731 73.0587282,107.98531 72.3517282,107.82431 L74.1527282,105.07631 L77.1327282,99.90531 L76.7687282,95.55831 C79.5327282,94.15231 81.2927282,93.07731 82.0497282,92.33431 C82.8057282,91.59131 83.6467282,89.98331 84.5747282,87.50631 C87.8057282,87.72731 89.9497282,87.81931 91.0067282,87.78531 C92.5927282,87.73231 94.8377282,87.04531 95.3637282,87.11931 C95.8897282,87.19331 95.4107282,88.34431 95.3597282,88.70531 C95.3257282,88.94531 95.3947282,89.24931 95.5657282,89.61731 L96.9397282,89.42831 C96.7567282,89.82131 96.6537282,90.09431 96.6327282,90.25031 C96.6097282,90.40431 96.6447282,90.61631 96.7347282,90.88431 C97.3647282,90.99831 97.8467282,90.97131 98.1807282,90.80531 C98.5137282,90.63931 99.0667282,90.14931 99.8427282,89.33431 C100.055728,87.83631 100.096728,86.87531 99.9637282,86.45331 C99.8297282,86.02931 99.2507282,85.40931 98.2257282,84.59031 C96.5997282,83.98131 95.0917282,83.22531 93.6997282,82.32631 C91.6137282,80.97531 90.7377282,79.91231 90.7657282,79.71131 C90.7947282,79.51131 92.9217282,80.28531 93.5577282,80.27531 C93.9817282,80.26931 94.6037282,80.12731 95.4247282,79.85031 C95.5877282,80.76731 95.7247282,81.34931 95.8387282,81.59431 C95.9507282,81.84031 96.1997282,82.10131 96.5837282,82.37531 C97.7237282,82.39631 98.4467282,82.34131 98.7507282,82.21131 C99.0537282,82.08331 99.3167282,81.71731 99.5417282,81.11631 C99.7057282,79.90131 99.7147282,79.10931 99.5687282,78.74131 C99.4247282,78.37231 98.9477282,77.98131 98.1417282,77.56631 C96.8897282,77.00031 95.9547282,76.61131 95.3347282,76.39731 C94.7147282,76.18331 93.5707282,75.85631 91.9027282,75.41531 C91.1827282,74.66031 90.8527282,74.07031 90.9127282,73.64431 C90.9727282,73.21731 91.3737282,72.67131 92.1147282,72.00331 C93.2217282,71.63831 94.5757282,71.09931 96.1797282,70.38631 C97.0017282,70.02131 97.8037282,69.01131 98.9707282,68.45931 C99.5017282,68.20831 100.667728,68.41031 101.808728,68.08031 C102.105728,67.99531 102.288728,67.59731 102.356728,66.89031 C103.556728,66.22731 104.446728,65.73931 105.024728,65.42331 C107.112728,64.28731 107.745728,61.79031 107.174728,60.77131 C105.957728,58.60431 101.548728,55.87531 95.7157282,54.28231 C91.8267282,53.22031 87.7947282,53.39631 83.6177282,54.81031 L79.7097282,57.29231 C75.0807282,59.11631 69.6107282,60.35931 63.2987282,61.02231 C53.8307282,62.01831 48.7427282,71.76531 45.6897282,77.54031 C42.6387282,83.31431 44.5767282,96.66431 44.4607282,97.49031 C44.4517282,97.54931 44.4107282,97.60531 44.3507282,97.65931 C41.9897282,94.50131 40.1047282,90.98731 38.7077282,87.10631 C36.9087282,82.10931 36.0097282,76.81131 36.0097282,71.21331 C36.0097282,65.21631 36.9587282,59.59431 38.8577282,54.34631 C40.7567282,49.09831 43.4307282,44.52531 46.8797282,40.62731 C50.3277282,36.72931 54.4747282,33.65531 59.3237282,31.40631 C64.1717282,29.15731 69.5947282,28.03331 75.5917282,28.03331 C80.4887282,28.03331 85.2367282,29.08231 89.8347282,31.18131 C94.4327282,33.28031 98.2307282,36.27931 101.229728,40.17731 L113.223728,31.03131 C108.926728,25.43431 103.403728,21.28631 96.6567282,18.58731 C89.9097282,15.88831 83.0377282,14.53931 76.0407282,14.53931 C67.8447282,14.53931 60.3477282,15.93831 53.5517282,18.73731 C46.7547282,21.53631 40.9317282,25.45931 36.0837282,30.50631 C31.2357282,35.55431 27.4627282,41.55231 24.7647282,48.49931 C22.0647282,55.44531 20.7157282,63.01731 20.7157282,71.21331 C20.7157282,77.91131 21.9657282,84.53331 24.4647282,91.08031 C25.8667282,94.75431 27.6367282,98.20831 29.7477282,101.45831 C27.5887282,102.51531 25.3707282,103.79631 23.5127282,105.07631 C19.6857282,107.70831 11.8037282,116.91931 13.4407282,119.89131 C15.0787282,122.86331 25.6097282,119.89131 30.1787282,117.28431 C32.7537282,115.81531 35.5977282,113.31331 37.8197282,111.21831 C42.0497282,115.26431 46.9617282,118.62931 52.5767282,121.29131 C59.3237282,124.49031 66.8947282,126.08831 75.2917282,126.08831 C81.3887282,126.08831 86.7617282,125.31431 91.4087282,123.76531 C96.0567282,122.21531 100.029728,120.41731 103.328728,118.36831 C106.627728,116.31831 109.275728,114.26931 111.274728,112.22031 C113.273728,110.17131 114.673728,108.59631 115.472728,107.49831 L103.328728,98.35131 Z" id="Fill-1" fill="#050607"></path>
            </g>
            <path d="M33.7121449,167.473145 C33.4968117,169.315439 32.8169276,170.737015 31.672472,171.737915 C30.5280164,172.738815 29.0067507,173.239258 27.1086292,173.239258 C25.0510018,173.239258 23.4021332,172.501554 22.161974,171.026123 C20.9218148,169.550692 20.3017445,167.576835 20.3017445,165.104492 L20.3017445,163.429688 C20.3017445,161.810702 20.5908448,160.387132 21.169054,159.158936 C21.7472633,157.930739 22.5667131,156.987674 23.6274281,156.329712 C24.688143,155.67175 25.9163208,155.342773 27.3119984,155.342773 C29.162268,155.342773 30.6456516,155.859166 31.7621937,156.891968 C32.8787357,157.924769 33.5287129,159.35432 33.7121449,161.180664 L31.403307,161.180664 C31.2039245,159.792962 30.7712709,158.788089 30.1053333,158.166016 C29.4393958,157.543942 28.5082934,157.23291 27.3119984,157.23291 C25.8445431,157.23291 24.6941233,157.775222 23.8607044,158.859863 C23.0272855,159.944504 22.6105824,161.487702 22.6105824,163.489502 L22.6105824,165.17627 C22.6105824,167.066416 23.0053538,168.569737 23.7949085,169.686279 C24.5844633,170.802821 25.6890258,171.361084 27.1086292,171.361084 C28.3846773,171.361084 29.3636307,171.071984 30.0455189,170.493774 C30.7274071,169.915565 31.1799986,168.908699 31.403307,167.473145 L33.7121449,167.473145 Z M49.600123,164.853271 C49.600123,166.559986 49.3130165,168.049351 48.7387949,169.321411 C48.1645733,170.593472 47.3511048,171.56445 46.2983652,172.234375 C45.2456255,172.9043 44.0174477,173.239258 42.6137949,173.239258 C41.2420432,173.239258 40.0258282,172.902306 38.9651132,172.228394 C37.9043983,171.554481 37.0809609,170.593471 36.4947763,169.345337 C35.9085917,168.097202 35.6075287,166.651701 35.5915781,165.008789 L35.5915781,163.752686 C35.5915781,162.077872 35.8826722,160.598476 36.4648691,159.314453 C37.047066,158.03043 37.8705034,157.047489 38.935206,156.365601 C39.9999086,155.683712 41.2181174,155.342773 42.5898691,155.342773 C43.9855466,155.342773 45.2157183,155.679725 46.2804209,156.353638 C47.3451234,157.027551 48.1645733,158.00451 48.7387949,159.284546 C49.3130165,160.564582 49.600123,162.053947 49.600123,163.752686 L49.600123,164.853271 Z M47.3152109,163.72876 C47.3152109,161.663157 46.9005015,160.07809 46.0710703,158.973511 C45.241639,157.868932 44.0812502,157.31665 42.5898691,157.31665 C41.1383644,157.31665 39.9959198,157.868932 39.1625009,158.973511 C38.329082,160.07809 37.9004161,161.611318 37.8764902,163.573242 L37.8764902,164.853271 C37.8764902,166.855072 38.297181,168.428176 39.1385751,169.572632 C39.9799693,170.717087 41.1383643,171.289307 42.6137949,171.289307 C44.0972007,171.289307 45.2456267,170.748988 46.0591074,169.668335 C46.872588,168.587682 47.291285,167.038503 47.3152109,165.020752 L47.3152109,163.72876 Z M64.6626617,155.582031 L64.6626617,167.425293 C64.6546864,169.068205 64.1382934,170.412023 63.1134674,171.456787 C62.0886413,172.501551 60.698966,173.087727 58.9444,173.215332 L58.3342925,173.239258 C56.4281958,173.239258 54.9089239,172.724859 53.7764312,171.696045 C52.6439386,170.667231 52.0697256,169.251637 52.053775,167.449219 L52.053775,155.582031 L54.3267242,155.582031 L54.3267242,167.377441 C54.3267242,168.637539 54.6736445,169.616492 55.3674957,170.314331 C56.0613468,171.01217 57.0502692,171.361084 58.3342925,171.361084 C59.6342665,171.361084 60.6291703,171.014164 61.3190338,170.320312 C62.0088972,169.626461 62.3538238,168.649502 62.3538238,167.389404 L62.3538238,155.582031 L64.6626617,155.582031 Z M74.0308644,165.953857 L69.9395558,165.953857 L69.9395558,173 L67.630718,173 L67.630718,155.582031 L73.3968312,155.582031 C75.3587551,155.582031 76.8680581,156.028641 77.9247853,156.921875 C78.9815126,157.815109 79.5098683,159.115063 79.5098683,160.821777 C79.5098683,161.906418 79.2167805,162.851477 78.6305959,163.656982 C78.0444113,164.462488 77.2289491,165.064614 76.1841848,165.463379 L80.2754933,172.856445 L80.2754933,173 L77.8111379,173 L74.0308644,165.953857 Z M69.9395558,164.075684 L73.4686086,164.075684 C74.6090765,164.075684 75.5162533,163.780602 76.1901662,163.19043 C76.8640791,162.600257 77.2010305,161.810715 77.2010305,160.821777 C77.2010305,159.745112 76.8800294,158.919681 76.2380178,158.345459 C75.5960061,157.771237 74.6688913,157.480143 73.4566457,157.472168 L69.9395558,157.472168 L69.9395558,164.075684 Z M87.2152293,165.236084 C85.2453301,164.669838 83.8117914,163.974003 82.9145701,163.14856 C82.0173488,162.323116 81.5687449,161.304287 81.5687449,160.092041 C81.5687449,158.720289 82.1170386,157.58582 83.2136424,156.688599 C84.3102462,155.791377 85.7358097,155.342773 87.4903758,155.342773 C88.6866708,155.342773 89.7533512,155.574054 90.690449,156.036621 C91.6275468,156.499189 92.3532883,157.137203 92.8676951,157.950684 C93.382102,158.764164 93.6393016,159.653397 93.6393016,160.618408 L91.3304637,160.618408 C91.3304637,159.565669 90.9955061,158.738244 90.3255809,158.136108 C89.6556556,157.533973 88.7105967,157.23291 87.4903758,157.23291 C86.3578831,157.23291 85.4746319,157.482135 84.8405955,157.980591 C84.2065591,158.479047 83.8895457,159.170894 83.8895457,160.056152 C83.8895457,160.765954 84.1906088,161.366086 84.792744,161.856567 C85.3948791,162.347048 86.4196898,162.795652 87.8672068,163.202393 C89.3147238,163.609133 90.4471995,164.057737 91.2646678,164.548218 C92.0821361,165.038699 92.6882498,165.610918 93.0830272,166.264893 C93.4778045,166.918867 93.6751902,167.688472 93.6751902,168.57373 C93.6751902,169.985359 93.1249028,171.11584 92.0243113,171.96521 C90.9237199,172.814579 89.4522991,173.239258 87.6100047,173.239258 C86.4137097,173.239258 85.2971844,173.009971 84.2603953,172.551392 C83.2236063,172.092812 82.4240944,171.464766 81.8618358,170.667236 C81.2995771,169.869706 81.018452,168.964523 81.018452,167.95166 L83.3272899,167.95166 C83.3272899,169.0044 83.7160799,169.835812 84.4936717,170.445923 C85.2712635,171.056033 86.3100307,171.361084 87.6100047,171.361084 C88.8222503,171.361084 89.7513589,171.113853 90.3973582,170.619385 C91.0433575,170.124916 91.3663524,169.451013 91.3663524,168.597656 C91.3663524,167.744299 91.0672831,167.084353 90.4691356,166.617798 C89.870988,166.151243 88.7863635,165.690676 87.2152293,165.236084 Z M105.818784,164.948975 L98.2701996,164.948975 L98.2701996,171.121826 L107.038998,171.121826 L107.038998,173 L95.9733246,173 L95.9733246,155.582031 L106.91937,155.582031 L106.91937,157.472168 L98.2701996,157.472168 L98.2701996,163.070801 L105.818784,163.070801 L105.818784,164.948975 Z M114.385473,165.236084 C112.415574,164.669838 110.982035,163.974003 110.084814,163.14856 C109.187592,162.323116 108.738988,161.304287 108.738988,160.092041 C108.738988,158.720289 109.287282,157.58582 110.383886,156.688599 C111.48049,155.791377 112.906053,155.342773 114.660619,155.342773 C115.856914,155.342773 116.923595,155.574054 117.860692,156.036621 C118.79779,156.499189 119.523532,157.137203 120.037939,157.950684 C120.552345,158.764164 120.809545,159.653397 120.809545,160.618408 L118.500707,160.618408 C118.500707,159.565669 118.165749,158.738244 117.495824,158.136108 C116.825899,157.533973 115.88084,157.23291 114.660619,157.23291 C113.528127,157.23291 112.644875,157.482135 112.010839,157.980591 C111.376803,158.479047 111.059789,159.170894 111.059789,160.056152 C111.059789,160.765954 111.360852,161.366086 111.962987,161.856567 C112.565123,162.347048 113.589933,162.795652 115.03745,163.202393 C116.484967,163.609133 117.617443,164.057737 118.434911,164.548218 C119.252379,165.038699 119.858493,165.610918 120.253271,166.264893 C120.648048,166.918867 120.845434,167.688472 120.845434,168.57373 C120.845434,169.985359 120.295146,171.11584 119.194555,171.96521 C118.093963,172.814579 116.622542,173.239258 114.780248,173.239258 C113.583953,173.239258 112.467428,173.009971 111.430639,172.551392 C110.39385,172.092812 109.594338,171.464766 109.032079,170.667236 C108.46982,169.869706 108.188695,168.964523 108.188695,167.95166 L110.497533,167.95166 C110.497533,169.0044 110.886323,169.835812 111.663915,170.445923 C112.441507,171.056033 113.480274,171.361084 114.780248,171.361084 C115.992494,171.361084 116.921602,171.113853 117.567602,170.619385 C118.213601,170.124916 118.536596,169.451013 118.536596,168.597656 C118.536596,167.744299 118.237526,167.084353 117.639379,166.617798 C117.041231,166.151243 115.956607,165.690676 114.385473,165.236084 Z" id="COURSES" fill="#000000"></path>
        </g>
    </g>
</svg>