<?xml version="1.0" encoding="UTF-8"?>
<svg width="140px" height="190px" viewBox="0 0 140 190" version="1.1" xmlns="http://www.w3.org/2000/svg" xmlns:xlink="http://www.w3.org/1999/xlink">
    <!-- Generator: Sketch 48.2 (47327) - http://www.bohemiancoding.com/sketch -->
    <title>Cro</title>
    <desc>Created with Sketch.</desc>
    <defs></defs>
    <g id="Page-1" stroke="none" stroke-width="1" fill="none" fill-rule="evenodd">
        <g id="Cro">
            <g>
                <rect id="bg" fill="#77D8AB" x="0" y="0" width="140" height="140"></rect>
                <g id="icon" transform="translate(10.266205, 13.500000)" fill="#030405">
                    <path d="M36.2323,86.7614 C34.3783,84.6894 32.7703,82.4324 31.3923,80.0024 L36.2923,80.4474 C39.3463,81.6574 42.4533,82.8094 45.6143,83.9044 C48.7753,84.9984 50.7083,85.5924 51.4113,85.6844 L51.6843,91.4994 L53.3933,93.9104 L55.1053,97.2844 L55.2333,97.9424 C52.9343,97.4064 50.7443,96.6864 48.6763,95.7574 C43.7783,93.5584 39.6303,90.5604 36.2323,86.7614 Z M56.7693,88.0114 C57.5113,87.9414 57.9943,87.9414 58.2173,88.0114 C58.4403,88.0804 58.7343,88.3234 59.1003,88.7404 L57.7553,91.9804 L57.7553,94.1354 L59.1003,96.1524 L59.1003,97.7564 L59.1523,98.6554 C58.7943,98.6084 58.4393,98.5564 58.0853,98.5004 L56.7693,94.9734 L55.5593,91.9804 L56.7693,88.0114 Z M93.0563,84.8124 C89.8583,89.3104 85.9603,92.8094 81.3613,95.3074 C76.7643,97.8064 71.4163,99.0564 65.3193,99.0564 C64.3093,99.0564 63.3233,99.0164 62.3473,98.9574 L61.8113,95.4884 L61.0233,92.2824 C62.7353,89.0904 64.0113,86.8914 64.8503,85.6844 C65.6903,84.4764 67.1553,82.7314 69.2493,80.4474 C74.4293,77.2554 77.9143,74.9134 79.7043,73.4204 C81.4943,71.9274 83.9423,69.3214 87.0473,65.5994 C88.7733,63.1564 89.9703,61.1644 90.6413,59.6254 C91.3113,58.0864 92.0633,55.6014 92.8973,52.1704 C93.0433,50.3224 93.0433,48.9394 92.8973,48.0214 C92.7503,47.1034 92.3213,45.7934 91.6093,44.0924 C90.7053,41.8274 89.2653,39.7784 87.2913,37.9434 C84.3303,35.1914 82.2993,34.6284 80.9453,34.1804 C80.0423,33.8824 78.6663,33.8824 76.8153,34.1804 C72.8023,32.2624 70.1773,31.1414 68.9403,30.8184 C67.7033,30.4944 65.8363,30.4944 63.3413,30.8184 C67.7833,32.9404 70.6313,34.4284 71.8863,35.2794 C72.8023,35.9014 75.7203,38.0784 74.2343,37.4404 C73.1403,36.9694 67.1903,34.6934 68.3173,35.7774 C69.4443,36.8614 70.2733,36.4654 71.4173,37.4404 C71.6513,37.6394 71.9973,37.9994 72.4563,38.5194 L63.0863,34.6934 C62.2843,34.4174 62.7903,34.9584 64.6063,36.3174 C66.4223,37.6754 69.1873,39.2444 72.9003,41.0244 L73.7303,41.9034 L74.6463,42.7804 C74.6563,43.8244 74.4173,44.7254 73.9273,45.4824 C73.1933,46.6174 71.4223,46.7194 70.3323,46.7894 C69.2423,46.8594 65.6263,46.8284 63.0863,47.4944 C60.5463,48.1604 56.6393,49.0784 51.2213,51.7984 C45.8043,54.5184 47.6403,54.6394 43.7423,57.2064 C39.8443,59.7754 32.2903,63.9884 31.9243,64.7334 C31.6803,65.2294 31.5053,65.7364 31.3993,66.2514 L30.8883,67.7974 L27.2323,69.6654 C26.2363,65.8334 25.7363,61.8374 25.7363,57.6744 C25.7363,51.6774 26.6863,46.0544 28.5853,40.8074 C30.4843,35.5594 33.1583,30.9864 36.6073,27.0884 C40.0553,23.1904 44.2033,20.1164 49.0513,17.8674 C53.8993,15.6184 59.3213,14.4934 65.3193,14.4934 C70.2173,14.4934 74.9643,15.5434 79.5633,17.6424 C84.1603,19.7414 87.9593,22.7404 90.9573,26.6384 L102.9523,17.4924 C98.6543,11.8954 93.1313,7.7464 86.3843,5.0484 C79.6373,2.3494 72.7663,0.9994 65.7693,0.9994 C57.5723,0.9994 50.0763,2.3994 43.2793,5.1984 C36.4823,7.9964 30.6593,11.9204 25.8123,16.9674 C20.9633,22.0154 17.1903,28.0124 14.4913,34.9594 C11.7933,41.9064 10.4433,49.4784 10.4433,57.6744 C10.4433,63.9514 11.5563,70.1614 13.7513,76.3074 L13.7423,76.3154 L6.6213,79.2164 L0.3153,81.5574 C-0.3397,81.8494 0.0253,82.3544 1.4133,83.0734 C2.2973,83.5324 0.6483,84.1074 2.3563,84.7364 C2.7583,84.8844 4.1213,85.1434 5.0043,85.8654 C5.5923,86.3454 6.7983,86.3454 8.6223,85.8654 C12.5853,84.7184 15.3053,83.8924 16.8253,83.3744 C19.0353,87.6234 21.7723,91.5564 25.0623,95.1574 C29.8103,100.3554 35.5573,104.5534 42.3043,107.7524 C49.0513,110.9504 56.6233,112.5494 65.0193,112.5494 C71.1163,112.5494 76.4893,111.7754 81.1373,110.2264 C85.7853,108.6764 89.7583,106.8774 93.0563,104.8284 C96.3553,102.7794 99.0043,100.7304 101.0033,98.6814 C103.0023,96.6324 104.4013,95.0574 105.2013,93.9584 L93.0563,84.8124 Z" id="Fill-1"></path>
                </g>
            </g>
            <path d="M61.8633453,167.473145 C61.6480122,169.315439 60.968128,170.737015 59.8236724,171.737915 C58.6792168,172.738815 57.1579511,173.239258 55.2598297,173.239258 C53.2022022,173.239258 51.5533336,172.501554 50.3131744,171.026123 C49.0730152,169.550692 48.4529449,167.576835 48.4529449,165.104492 L48.4529449,163.429688 C48.4529449,161.810702 48.7420452,160.387132 49.3202545,159.158936 C49.8984637,157.930739 50.7179135,156.987674 51.7786285,156.329712 C52.8393434,155.67175 54.0675212,155.342773 55.4631988,155.342773 C57.3134685,155.342773 58.7968521,155.859166 59.9133941,156.891968 C61.0299362,157.924769 61.6799134,159.35432 61.8633453,161.180664 L59.5545074,161.180664 C59.3551249,159.792962 58.9224713,158.788089 58.2565338,158.166016 C57.5905962,157.543942 56.6594938,157.23291 55.4631988,157.23291 C53.9957435,157.23291 52.8453237,157.775222 52.0119049,158.859863 C51.178486,159.944504 50.7617828,161.487702 50.7617828,163.489502 L50.7617828,165.17627 C50.7617828,167.066416 51.1565542,168.569737 51.946109,169.686279 C52.7356637,170.802821 53.8402262,171.361084 55.2598297,171.361084 C56.5358777,171.361084 57.5148311,171.071984 58.1967193,170.493774 C58.8786075,169.915565 59.331199,168.908699 59.5545074,167.473145 L61.8633453,167.473145 Z M70.7410695,165.953857 L66.6497609,165.953857 L66.6497609,173 L64.340923,173 L64.340923,155.582031 L70.1070363,155.582031 C72.0689602,155.582031 73.5782631,156.028641 74.6349904,156.921875 C75.6917177,157.815109 76.2200734,159.115063 76.2200734,160.821777 C76.2200734,161.906418 75.9269855,162.851477 75.340801,163.656982 C74.7546164,164.462488 73.9391542,165.064614 72.8943898,165.463379 L76.9856984,172.856445 L76.9856984,173 L74.521343,173 L70.7410695,165.953857 Z M66.6497609,164.075684 L70.1788137,164.075684 C71.3192816,164.075684 72.2264584,163.780602 72.9003713,163.19043 C73.5742842,162.600257 73.9112355,161.810715 73.9112355,160.821777 C73.9112355,159.745112 73.5902345,158.919681 72.9482228,158.345459 C72.3062112,157.771237 71.3790964,157.480143 70.1668508,157.472168 L66.6497609,157.472168 L66.6497609,164.075684 Z M92.1917918,164.853271 C92.1917918,166.559986 91.9046853,168.049351 91.3304637,169.321411 C90.7562421,170.593472 89.9427736,171.56445 88.890034,172.234375 C87.8372944,172.9043 86.6091165,173.239258 85.2054637,173.239258 C83.833712,173.239258 82.617497,172.902306 81.556782,172.228394 C80.4960671,171.554481 79.6726297,170.593471 79.0864451,169.345337 C78.5002606,168.097202 78.1991975,166.651701 78.1832469,165.008789 L78.1832469,163.752686 C78.1832469,162.077872 78.474341,160.598476 79.0565379,159.314453 C79.6387348,158.03043 80.4621722,157.047489 81.5268748,156.365601 C82.5915774,155.683712 83.8097862,155.342773 85.1815379,155.342773 C86.5772155,155.342773 87.8073871,155.679725 88.8720897,156.353638 C89.9367922,157.027551 90.7562421,158.00451 91.3304637,159.284546 C91.9046853,160.564582 92.1917918,162.053947 92.1917918,163.752686 L92.1917918,164.853271 Z M89.9068797,163.72876 C89.9068797,161.663157 89.4921703,160.07809 88.6627391,158.973511 C87.8333078,157.868932 86.6729191,157.31665 85.1815379,157.31665 C83.7300332,157.31665 82.5875886,157.868932 81.7541697,158.973511 C80.9207509,160.07809 80.4920849,161.611318 80.468159,163.573242 L80.468159,164.853271 C80.468159,166.855072 80.8888498,168.428176 81.730244,169.572632 C82.5716381,170.717087 83.7300331,171.289307 85.2054637,171.289307 C86.6888695,171.289307 87.8372956,170.748988 88.6507762,169.668335 C89.4642568,168.587682 89.8829538,167.038503 89.9068797,165.020752 L89.9068797,163.72876 Z" id="Cro-Copy-2" fill="#000000"></path>
        </g>
    </g>
</svg>